<?xml version="1.0" encoding="UTF-8" standalone="no"?>
<!DOCTYPE svg PUBLIC "-//W3C//DTD SVG 1.1//EN" "http://www.w3.org/Graphics/SVG/1.1/DTD/svg11.dtd">
<!-- Generated by graphviz version 2.40.1 (20161225.0304)
 -->
<!-- Title: calculateContamination Pages: 1 -->
<svg width="396pt" height="406pt" viewBox="0.00 0.00 396.00 406.00" xmlns="http://www.w3.org/2000/svg" xmlns:xlink="http://www.w3.org/1999/xlink">
<g id="graph0" class="graph" transform="scale(1 1) rotate(0) translate(4 402)">
<title>calculateContamination</title>
<polygon fill="#ffffff" stroke="transparent" points="-4,4 -4,-402 392,-402 392,4 -4,4"/>
<g id="clust1" class="cluster">
<title>cluster_0</title>
<polygon fill="#d3d3d3" stroke="#d3d3d3" points="26,-138 26,-190 330,-190 330,-138 26,-138"/>
</g>
<g id="clust2" class="cluster">
<title>cluster_1</title>
<polygon fill="none" stroke="#0000ff" points="8,-65 8,-118 188,-118 188,-65 8,-65"/>
</g>
<g id="clust3" class="cluster">
<title>cluster_2</title>
<polygon fill="none" stroke="#0000ff" points="196,-65 196,-118 380,-118 380,-65 196,-65"/>
</g>
<!-- tumorOnlyMetrics -->
<g id="node1" class="node">
<title>tumorOnlyMetrics</title>
<ellipse fill="#ffffff" stroke="#ffffff" cx="117" cy="-164" rx="82.8225" ry="18"/>
<text text-anchor="middle" x="117" y="-159.8" font-family="Times,serif" font-size="14.00" fill="#000000">tumorOnlyMetrics</text>
</g>
<!-- b1 -->
<g id="node3" class="node">
<title>b1</title>
<path fill="#d3d3d3" stroke="#000000" d="M27.7391,-73.5C27.7391,-73.5 168.2609,-73.5 168.2609,-73.5 174.2609,-73.5 180.2609,-79.5 180.2609,-85.5 180.2609,-85.5 180.2609,-97.5 180.2609,-97.5 180.2609,-103.5 174.2609,-109.5 168.2609,-109.5 168.2609,-109.5 27.7391,-109.5 27.7391,-109.5 21.7391,-109.5 15.7391,-103.5 15.7391,-97.5 15.7391,-97.5 15.7391,-85.5 15.7391,-85.5 15.7391,-79.5 21.7391,-73.5 27.7391,-73.5"/>
<text text-anchor="middle" x="98" y="-87.3" font-family="Times,serif" font-size="14.00" fill="#000000">Run non-matched analysis</text>
</g>
<!-- tumorOnlyMetrics&#45;&gt;b1 -->
<g id="edge5" class="edge">
<title>tumorOnlyMetrics-&gt;b1</title>
<path fill="none" stroke="#000000" d="M112.2055,-145.7052C110.1195,-137.7455 107.6286,-128.2406 105.3194,-119.4291"/>
<polygon fill="#000000" stroke="#000000" points="108.648,-118.3238 102.7272,-109.5378 101.8766,-120.0984 108.648,-118.3238"/>
</g>
<!-- getMetrics -->
<g id="node2" class="node">
<title>getMetrics</title>
<ellipse fill="#ffffff" stroke="#ffffff" cx="270" cy="-164" rx="52.1617" ry="18"/>
<text text-anchor="middle" x="270" y="-159.8" font-family="Times,serif" font-size="14.00" fill="#000000">getMetrics</text>
</g>
<!-- b3 -->
<g id="node4" class="node">
<title>b3</title>
<path fill="#d3d3d3" stroke="#000000" d="M215.7875,-73.5C215.7875,-73.5 360.2125,-73.5 360.2125,-73.5 366.2125,-73.5 372.2125,-79.5 372.2125,-85.5 372.2125,-85.5 372.2125,-97.5 372.2125,-97.5 372.2125,-103.5 366.2125,-109.5 360.2125,-109.5 360.2125,-109.5 215.7875,-109.5 215.7875,-109.5 209.7875,-109.5 203.7875,-103.5 203.7875,-97.5 203.7875,-97.5 203.7875,-85.5 203.7875,-85.5 203.7875,-79.5 209.7875,-73.5 215.7875,-73.5"/>
<text text-anchor="middle" x="288" y="-87.3" font-family="Times,serif" font-size="14.00" fill="#000000">Run tumor/normal analysis</text>
</g>
<!-- getMetrics&#45;&gt;b3 -->
<g id="edge6" class="edge">
<title>getMetrics-&gt;b3</title>
<path fill="none" stroke="#000000" d="M274.5422,-145.7052C276.5184,-137.7455 278.8782,-128.2406 281.0659,-119.4291"/>
<polygon fill="#000000" stroke="#000000" points="284.5088,-120.0866 283.5216,-109.5378 277.7151,-118.3998 284.5088,-120.0866"/>
</g>
<!-- end -->
<g id="node8" class="node">
<title>end</title>
<polygon fill="none" stroke="#000000" points="97.332,-.5 97.332,-36.5 288.668,-36.5 288.668,-.5 97.332,-.5"/>
<text text-anchor="middle" x="193" y="-14.3" font-family="Times,serif" font-size="14.00" fill="#000000">Table of contamination metrics</text>
</g>
<!-- b1&#45;&gt;end -->
<g id="edge7" class="edge">
<title>b1-&gt;end</title>
<path fill="none" stroke="#000000" d="M121.4832,-73.4551C133.4725,-64.2422 148.2321,-52.9006 161.2231,-42.918"/>
<polygon fill="#000000" stroke="#000000" points="163.661,-45.4587 169.4578,-36.5904 159.3958,-39.9082 163.661,-45.4587"/>
</g>
<!-- b3&#45;&gt;end -->
<g id="edge8" class="edge">
<title>b3-&gt;end</title>
<path fill="none" stroke="#000000" d="M264.5168,-73.4551C252.5275,-64.2422 237.7679,-52.9006 224.7769,-42.918"/>
<polygon fill="#000000" stroke="#000000" points="226.6042,-39.9082 216.5422,-36.5904 222.339,-45.4587 226.6042,-39.9082"/>
</g>
<!-- inputGroups -->
<g id="node5" class="node">
<title>inputGroups</title>
<path fill="none" stroke="#ffa500" d="M181.3288,-395.2103C181.3288,-395.2103 129.3661,-382.7897 129.3661,-382.7897 123.5305,-381.3949 123.5305,-378.6051 129.3661,-377.2103 129.3661,-377.2103 181.3288,-364.7897 181.3288,-364.7897 187.1644,-363.3949 198.8356,-363.3949 204.6712,-364.7897 204.6712,-364.7897 256.6339,-377.2103 256.6339,-377.2103 262.4695,-378.6051 262.4695,-381.3949 256.6339,-382.7897 256.6339,-382.7897 204.6712,-395.2103 204.6712,-395.2103 198.8356,-396.6051 187.1644,-396.6051 181.3288,-395.2103"/>
<text text-anchor="middle" x="193" y="-375.8" font-family="Times,serif" font-size="14.00" fill="#000000">FastQ files</text>
</g>
<!-- bwaMem -->
<g id="node6" class="node">
<title>bwaMem</title>
<ellipse fill="none" stroke="#000000" cx="193" cy="-308" rx="47.5119" ry="18"/>
<text text-anchor="middle" x="193" y="-303.8" font-family="Times,serif" font-size="14.00" fill="#000000">bwaMem</text>
</g>
<!-- inputGroups&#45;&gt;bwaMem -->
<g id="edge1" class="edge">
<title>inputGroups-&gt;bwaMem</title>
<path fill="none" stroke="#000000" d="M193,-361.8314C193,-354.131 193,-344.9743 193,-336.4166"/>
<polygon fill="#000000" stroke="#000000" points="196.5001,-336.4132 193,-326.4133 189.5001,-336.4133 196.5001,-336.4132"/>
</g>
<!-- bams -->
<g id="node7" class="node">
<title>bams</title>
<path fill="none" stroke="#ffa500" d="M181.3978,-250.9358C181.3978,-250.9358 136.4484,-239.0642 136.4484,-239.0642 130.6473,-237.5321 130.6473,-234.4679 136.4484,-232.9358 136.4484,-232.9358 181.3978,-221.0642 181.3978,-221.0642 187.1989,-219.5321 198.8011,-219.5321 204.6022,-221.0642 204.6022,-221.0642 249.5516,-232.9358 249.5516,-232.9358 255.3527,-234.4679 255.3527,-237.5321 249.5516,-239.0642 249.5516,-239.0642 204.6022,-250.9358 204.6022,-250.9358 198.8011,-252.4679 187.1989,-252.4679 181.3978,-250.9358"/>
<text text-anchor="middle" x="193" y="-231.8" font-family="Times,serif" font-size="14.00" fill="#000000">Bam files</text>
</g>
<!-- bwaMem&#45;&gt;bams -->
<g id="edge2" class="edge">
<title>bwaMem-&gt;bams</title>
<path fill="none" stroke="#000000" d="M193,-289.8314C193,-282.131 193,-272.9743 193,-264.4166"/>
<polygon fill="#000000" stroke="#000000" points="196.5001,-264.4132 193,-254.4133 189.5001,-264.4133 196.5001,-264.4132"/>
</g>
<!-- bams&#45;&gt;tumorOnlyMetrics -->
<g id="edge3" class="edge">
<title>bams-&gt;tumorOnlyMetrics</title>
<path fill="none" stroke="#000000" d="M177.9848,-221.7751C168.0487,-212.362 154.7543,-199.7672 143.1143,-188.7399"/>
<polygon fill="#000000" stroke="#000000" points="145.4227,-186.1055 135.756,-181.7689 140.6085,-191.1872 145.4227,-186.1055"/>
<text text-anchor="middle" x="87.827" y="-191.8099" font-family="Times,serif" font-size="14.00" fill="#000000">If array length is 1</text>
</g>
<!-- bams&#45;&gt;getMetrics -->
<g id="edge4" class="edge">
<title>bams-&gt;getMetrics</title>
<path fill="none" stroke="#000000" d="M208.2127,-221.7751C218.4953,-212.1603 232.3277,-199.226 244.2978,-188.0332"/>
<polygon fill="#000000" stroke="#000000" points="246.9251,-190.3682 251.8389,-180.9818 242.1442,-185.2553 246.9251,-190.3682"/>
<text text-anchor="middle" x="299.674" y="-191.3352" font-family="Times,serif" font-size="14.00" fill="#000000">If array length is 2</text>
</g>
</g>
</svg>